<svg viewBox="0 0 66.09 39.98" xmlns="http://www.w3.org/2000/svg"><g fill="#870000"><path d="m44.11 14.48-.89.8.26.38.82-.54z"/><path d="m33.06 34.22c-1.39-.44-10.41-3.59-10.41-10.47v-12.85a20.81 20.81 0 0 0 10.41-3.34 20.9 20.9 0 0 0 10.42 3.34v12.85c0 6.88-9.02 10.03-10.42 10.47z"/><path d="m45.34 9.28h-.62a20.77 20.77 0 0 1 -11.25-3.6l-.08-.06-.32-.25-.32.25-.08.06a20.79 20.79 0 0 1 -11.27 3.6h-.61v14.65c0 8.63 12.15 12.22 12.27 12.25s12.28-3.62 12.28-12.25zm-12.28 25.72c-1.47-.48-11-3.82-11-11.11v-13.59a21.93 21.93 0 0 0 11-3.54 22 22 0 0 0 11 3.54v13.63c.04 7.29-9.52 10.63-11 11.07z"/><path d="m49.06 38.92 3.91 1.06-37.45-37.51-1.45 1.46z"/><path d="m16.16 7.37a1.75 1.75 0 0 1 1.62.27l-.78-.79z"/><path d="m19 4.56a1.76 1.76 0 0 0 .28 1.63l-.8-.8z"/><path d="m14.8.29.38.39a1.66 1.66 0 0 1 -.18 2.32l-.47.47a1.62 1.62 0 0 1 -2.28.14l-.39-.38a3.61 3.61 0 1 0 2.94-2.94z"/><path d="m50.01 2.26h1.55v2.06h-1.55z" transform="matrix(.70710678 -.70710678 .70710678 .70710678 12.55 36.87)"/><path d="m46.22 6.39-33.53 33.53 3.92-.99 31.07-31.08z"/><path d="m53.51 7.85-7.65-7.66-2.55 2.55 10.57 10.57s1.9-3.2-.37-5.46z"/></g><g fill="#fff"><path d="m35.93 33.07a23.39 23.39 0 0 1 -2.87 1.15 23.47 23.47 0 0 1 -2.86-1.15v-24a18.91 18.91 0 0 0 2.86-1.56 19.15 19.15 0 0 0 2.87 1.56z"/><path d="m30.33 24.07-.66.89.66.32.48-.61z"/><g stroke="#fff" stroke-miterlimit="10" stroke-width="1.42"><path d="m32.61 15.33.1.25a1.69 1.69 0 0 0 -.85.61 1.87 1.87 0 0 0 -.23 1 24.77 24.77 0 0 0 .27 2.81c.15 1.08.24 1.76.27 2.05s0 .58 0 .89a4.81 4.81 0 0 1 -.35 1.94 2.58 2.58 0 0 1 -.82 1.12 1.77 1.77 0 0 1 -1 .36 4.87 4.87 0 0 1 -1.55-.36 4 4 0 0 0 -1.22-.33.87.87 0 0 0 -.61.23 1.43 1.43 0 0 0 -.38.69l-.24-.16a3.15 3.15 0 0 1 .37-1.07 1.9 1.9 0 0 1 .63-.7 2.34 2.34 0 0 1 1-.24 1.19 1.19 0 0 0 .89-.34 1.55 1.55 0 0 0 .23-.93 3.79 3.79 0 0 0 -.4-1.95.89.89 0 0 0 -.78-.48.91.91 0 0 0 -.41.1 3.65 3.65 0 0 0 -.56.43l-.17-.18a2.72 2.72 0 0 1 .73-1 1.52 1.52 0 0 1 1-.33h.2a6.86 6.86 0 0 1 .28-2 6.73 6.73 0 0 1 .99-1.74 9.3 9.3 0 0 1 -.89.5 1.16 1.16 0 0 1 -.42.07 2.18 2.18 0 0 1 -.53-.08 2.83 2.83 0 0 0 -.53-.08.81.81 0 0 0 -.62.23 1.2 1.2 0 0 0 -.28.72l-.22-.06a2.64 2.64 0 0 1 .42-1.27 1.43 1.43 0 0 1 1.23-.65 2 2 0 0 1 .53.09 4.1 4.1 0 0 0 1 .15 2.26 2.26 0 0 0 .55-.06 3.44 3.44 0 0 0 .57-.27l.14.22a3.74 3.74 0 0 0 -.95 1.3 5.35 5.35 0 0 0 -.24 1.8v1.06c0 .14.06.58.16 1.33.11.95.17 1.57.17 1.87a1.91 1.91 0 0 1 -.41 1.3 2 2 0 0 1 -1 .51 7.12 7.12 0 0 0 1 .93 1 1 0 0 0 .55.18.82.82 0 0 0 .66-.35 1.51 1.51 0 0 0 .28-.93 23.21 23.21 0 0 0 -.17-2.62 27.28 27.28 0 0 1 -.32-3.39 4.85 4.85 0 0 1 .24-1.69 2.41 2.41 0 0 1 .71-1 2.35 2.35 0 0 1 .98-.48z"/><path d="m41.24 15.33.12.34a2.31 2.31 0 0 0 -.63.51 1.48 1.48 0 0 0 -.28.56 3.61 3.61 0 0 0 -.09.93v.53l.1 5.47a3.4 3.4 0 0 0 .15 1.18c.07.13.15.19.24.19s.29-.14.53-.42l.17.27-1.09 1.17-.36.37a1.53 1.53 0 0 1 -.66-.72 3.94 3.94 0 0 1 -.22-1.43l-2.22 2.15c-1.27-1-2.13-1.56-2.59-1.56a.37.37 0 0 0 -.29.13.41.41 0 0 0 -.08.27.88.88 0 0 0 .11.42 1.26 1.26 0 0 1 .15.4.36.36 0 0 1 -.09.24.23.23 0 0 1 -.2.1.27.27 0 0 1 -.23-.15.88.88 0 0 1 -.13-.51 2.26 2.26 0 0 1 .16-.79 6.05 6.05 0 0 1 .48-.95l.12-.2.84-1.43a5.19 5.19 0 0 1 -1.25-1.53 3.82 3.82 0 0 1 -.34-1.64 4.46 4.46 0 0 1 .43-2 3.3 3.3 0 0 1 1.3-1.42 3.46 3.46 0 0 1 1.78-.52 4 4 0 0 1 2.7 1.22 5.5 5.5 0 0 1 .61-.69 4.86 4.86 0 0 1 .76-.49zm-2.88 1.67a2.85 2.85 0 0 0 -1.48-.45 2.65 2.65 0 0 0 -1.46.43 2.72 2.72 0 0 0 -1 1.1 3 3 0 0 0 -.34 1.39 3.45 3.45 0 0 0 1.3 2.65l2-3.34a1.42 1.42 0 0 0 -.79-.3.9.9 0 0 0 -.79.57q-.06.12-.12.12a.1.1 0 0 1 -.07 0 .2.2 0 0 1 0-.11 1.83 1.83 0 0 1 .73-1.29 1.35 1.35 0 0 1 .76-.25 2.32 2.32 0 0 1 .93.25zm-3 5.62-.53.91 3 1.6 1.38-1.28v-1.23zm3.71-4.86a2.93 2.93 0 0 0 -.22-.3 2.53 2.53 0 0 0 -.3-.27l-2.55 4.39h3.16z"/></g></g><path d="m32.06 15.33.1.25a1.69 1.69 0 0 0 -.85.61 2 2 0 0 0 -.23 1 24.77 24.77 0 0 0 .27 2.8c.15 1.08.24 1.76.27 2.05a8.45 8.45 0 0 1 0 .89 4.81 4.81 0 0 1 -.35 1.94 2.56 2.56 0 0 1 -.84 1.13 1.82 1.82 0 0 1 -1 .36 4.87 4.87 0 0 1 -1.53-.36 4 4 0 0 0 -1.22-.33.89.89 0 0 0 -.61.23 1.52 1.52 0 0 0 -.38.69l-.22-.11a3.15 3.15 0 0 1 .37-1.07 2 2 0 0 1 .63-.7 2.39 2.39 0 0 1 1-.24 1.18 1.18 0 0 0 .88-.34 1.55 1.55 0 0 0 .23-.93 3.79 3.79 0 0 0 -.4-1.95.89.89 0 0 0 -.78-.48.88.88 0 0 0 -.4.1 2.88 2.88 0 0 0 -.56.43l-.18-.18a2.72 2.72 0 0 1 .73-1 1.53 1.53 0 0 1 1-.33h.2a6.56 6.56 0 0 1 .27-2 6.73 6.73 0 0 1 1-1.76 9.3 9.3 0 0 1 -.89.5 1.16 1.16 0 0 1 -.42.07 2.18 2.18 0 0 1 -.53-.08 2.87 2.87 0 0 0 -.52-.08.82.82 0 0 0 -.63.23 1.2 1.2 0 0 0 -.28.72l-.22-.06a2.75 2.75 0 0 1 .42-1.27 1.44 1.44 0 0 1 1.23-.65 2 2 0 0 1 .53.09 4.1 4.1 0 0 0 1 .15 2.26 2.26 0 0 0 .55-.06 2.82 2.82 0 0 0 .57-.27l.14.22a3.74 3.74 0 0 0 -.85 1.26 5.35 5.35 0 0 0 -.24 1.8v1.06c0 .14.06.58.15 1.33.11.95.17 1.57.17 1.87a1.62 1.62 0 0 1 -1.38 1.81 7.12 7.12 0 0 0 1 .93 1 1 0 0 0 .55.18.82.82 0 0 0 .66-.35 1.45 1.45 0 0 0 .28-.93 23.21 23.21 0 0 0 -.27-2.62 26.83 26.83 0 0 1 -.31-3.39 5.13 5.13 0 0 1 .23-1.69 2.5 2.5 0 0 1 .71-1 2.35 2.35 0 0 1 .95-.47z" fill="#870000"/><path d="m40.69 15.33.12.34a2.48 2.48 0 0 0 -.63.51 1.48 1.48 0 0 0 -.28.56 3.7 3.7 0 0 0 -.08.93v.53l.1 5.47a3.4 3.4 0 0 0 .15 1.18c.07.13.15.19.24.19s.29-.14.53-.42l.17.27-1.09 1.17-.36.37a1.53 1.53 0 0 1 -.66-.72 3.94 3.94 0 0 1 -.22-1.43l-2.27 2.15c-1.27-1-2.13-1.56-2.59-1.56a.35.35 0 0 0 -.28.13.37.37 0 0 0 -.09.27 1 1 0 0 0 .11.42 1.26 1.26 0 0 1 .15.4.41.41 0 0 1 -.08.24.26.26 0 0 1 -.2.1.27.27 0 0 1 -.24-.15.88.88 0 0 1 -.13-.51 2.52 2.52 0 0 1 .16-.79 6.05 6.05 0 0 1 .48-.98l.12-.2.84-1.43a5.19 5.19 0 0 1 -1.2-1.53 3.82 3.82 0 0 1 -.34-1.64 4.46 4.46 0 0 1 .43-2 3.3 3.3 0 0 1 1.3-1.42 3.48 3.48 0 0 1 1.78-.52 4 4 0 0 1 2.71 1.22 5.5 5.5 0 0 1 .6-.69 4.86 4.86 0 0 1 .75-.46zm-2.88 1.67a2.8 2.8 0 0 0 -1.47-.45 2.88 2.88 0 0 0 -2.5 1.53 3.13 3.13 0 0 0 -.34 1.39 3.48 3.48 0 0 0 1.3 2.65l2-3.34a1.42 1.42 0 0 0 -.79-.3.9.9 0 0 0 -.79.57q-.06.12-.12.12a.13.13 0 0 1 -.07 0 .2.2 0 0 1 0-.11 1.61 1.61 0 0 1 .18-.63 1.68 1.68 0 0 1 .55-.66 1.35 1.35 0 0 1 .76-.25 2.32 2.32 0 0 1 .93.25zm-3 5.62-.54.91 3 1.6 1.38-1.28v-1.23zm3.71-4.86c-.12-.16-.19-.26-.23-.3a3.08 3.08 0 0 0 -.29-.27l-2.57 4.36h3.16z" fill="#870000"/><path d="m47.91 13.29c-.41 0-.62-.2-.62-.41a.54.54 0 0 1 .62-.61c.21 0 .41.19.41.61a.43.43 0 0 1 -.41.41m2.05-1 .42.4-1.44.21v-.42a9.61 9.61 0 0 1 1.06-.21zm7-1.44c-.4 0-2.46 3.07-3.07 4.11-.42.82-2.57 3.88-3.89 2.84-1.08-.85-2.08-2.84-.43-3.46 1.23-.42 5.18-1.67 5.18-1.67a2.28 2.28 0 0 0 -1.48-1.21c-1-.21-3.3.41-3.5.2-.2 0-1-.81-1-.81l-.21.61-.56-.46c-.5-.37-.67-.28-.88-.19l-2.87 1.63c-.23.13-.21.42-.21.83v5.56a3.69 3.69 0 0 1 -.2 1.23 7.71 7.71 0 0 1 -.62 1.65c0 .4 1.44 2.88 1.44 3.08a3.17 3.17 0 0 1 -.41.83 4.63 4.63 0 0 0 -1-1.24 5 5 0 0 1 -1.24-2.27c-.2 0-.41.62-.61.62-.41-.2-.83-.41-1.23-.2s-.62.2-.83.41a3.62 3.62 0 0 1 3.61 3.56 4.11 4.11 0 0 1 -.67 2.25 1.45 1.45 0 0 0 1.17-.88c.21-.81 0-1.44.21-1.44a33.7 33.7 0 0 1 2.47 3.3l-.21-1.23.83-.42-.21-1 .41.41 1.24 3.29a11.62 11.62 0 0 1 -1.44 1.85 1.28 1.28 0 0 1 -1.44-.21c-.62-.41 0 .42-.62.42-.82 0-.82.2-1 .4a9.1 9.1 0 0 0 -.41 1 3.06 3.06 0 0 1 .82-.42h2.47c.41 0 .41-.2.61-.2h2.68c.2 0 .82.62.82.62s-.2-1.44-.62-1.44h-1.94l1.23-1.65 2-1.23-1.35-.38.83-.61-1-.62 1.24.21 1.64 4.32h-1.31c-.4 0-.4 1.44-.4 1.44s.2-.62.61-.62h2.06a.66.66 0 0 1 .4.2h2.48a5.39 5.39 0 0 1 1 .42l-.55-1.28a1.55 1.55 0 0 0 -1-.2s-.21.2-.21 0 .42-.62-.41-.21a4.49 4.49 0 0 1 -1.43.21l-.42-1.44 1.85-1.24-1.24-.41.63-.62-.82-.61 1-.21 4.32 4.93 1.44-3.7h2.88l-8-6.17h2.27c0-.2.61-1.85.61-1.85h-3.9l.21-.41h4.11l1-1.65h-3.9l.21-.41h3.29c.4 0 .61 0 .82-.2l1-1.65h-4.15l.42-.42h4.11l1-1.64h-4.09l.21-.41h3.49a1.28 1.28 0 0 0 .83-.2l1-1.44h-4.13l.21-.42h3.29c.41 0 .82 0 1-.4l1-1.44z" fill="none" stroke="#fcfdfe" stroke-linecap="round" stroke-linejoin="round" stroke-width=".99"/><path d="m48.7 12h2.1v1.11h-2.1z" fill="#fff"/><path d="m47.91 13.29c-.41 0-.62-.2-.62-.41a.54.54 0 0 1 .62-.61c.21 0 .41.19.41.61a.43.43 0 0 1 -.41.41m2.05-1 .42.4-1.44.21v-.42a9.61 9.61 0 0 1 1.06-.21zm7-1.44c-.4 0-2.46 3.07-3.07 4.11-.42.82-2.57 3.88-3.89 2.84-1.08-.85-2.08-2.84-.43-3.46 1.23-.42 5.18-1.67 5.18-1.67a2.28 2.28 0 0 0 -1.48-1.21c-1-.21-3.3.41-3.5.2-.2 0-1-.81-1-.81l-.21.61-.56-.46c-.5-.37-.67-.28-.88-.19l-2.87 1.63c-.23.13-.21.42-.21.83v5.56a3.69 3.69 0 0 1 -.2 1.23 7.71 7.71 0 0 1 -.62 1.65c0 .4 1.44 2.88 1.44 3.08a3.17 3.17 0 0 1 -.41.83 4.63 4.63 0 0 0 -1-1.24 5 5 0 0 1 -1.24-2.27c-.2 0-.41.62-.61.62-.41-.2-.83-.41-1.23-.2s-.62.2-.83.41a3.62 3.62 0 0 1 3.61 3.56 4.11 4.11 0 0 1 -.67 2.25 1.45 1.45 0 0 0 1.17-.88c.21-.81 0-1.44.21-1.44a33.7 33.7 0 0 1 2.47 3.3l-.21-1.23.83-.42-.21-1 .41.41 1.24 3.29a11.62 11.62 0 0 1 -1.44 1.85 1.28 1.28 0 0 1 -1.44-.21c-.62-.41 0 .42-.62.42-.82 0-.82.2-1 .4a9.1 9.1 0 0 0 -.41 1 3.06 3.06 0 0 1 .82-.42h2.47c.41 0 .41-.2.61-.2h2.68c.2 0 .82.62.82.62s-.2-1.44-.62-1.44h-1.94l1.23-1.65 2-1.23-1.35-.38.83-.61-1-.62 1.24.21 1.64 4.32h-1.31c-.4 0-.4 1.44-.4 1.44s.2-.62.61-.62h2.06a.66.66 0 0 1 .4.2h2.48a5.39 5.39 0 0 1 1 .42l-.55-1.28a1.55 1.55 0 0 0 -1-.2s-.21.2-.21 0 .42-.62-.41-.21a4.49 4.49 0 0 1 -1.43.21l-.42-1.44 1.85-1.24-1.24-.41.63-.62-.82-.61 1-.21 4.32 4.93 1.44-3.7h2.88l-8-6.17h2.27c0-.2.61-1.85.61-1.85h-3.9l.21-.41h4.11l1-1.65h-3.9l.21-.41h3.29c.4 0 .61 0 .82-.2l1-1.65h-4.15l.42-.42h4.11l1-1.64h-4.09l.21-.41h3.49a1.28 1.28 0 0 0 .83-.2l1-1.44h-4.13l.21-.42h3.29c.41 0 .82 0 1-.4l1-1.44z" fill="#870000"/><circle cx="47.8" cy="12.8" fill="#fff" r=".6"/><circle cx="47.8" cy="12.8" fill="#910000" r=".31"/><path d="m15.29 12h2.1v1.11h-2.1z" fill="#fff"/><path d="m18.18 13.29a.43.43 0 0 1 -.41-.41c0-.42.2-.61.41-.61a.53.53 0 0 1 .61.61c0 .21-.2.41-.61.41m-1-.83v.42l-1.44-.21.41-.4a9.4 9.4 0 0 1 1 .19zm-16.68-1.63 1 1.44c.21.4.62.4 1 .4h3.34l.21.42h-4.11l1 1.44a1.26 1.26 0 0 0 .82.2h3.5l.21.41h-4.09l1 1.64h4.13l.42.42h-4.12l1 1.65c.21.2.41.2.82.2h3.37l.21.41h-3.96l1 1.65h4.11l.21.41h-3.88s.62 1.65.62 1.85h2.26l-8 6.17h2.86l1.44 3.7 4.32-4.93 1 .21-.82.61.62.62-1.24.41 1.86 1.24-.42 1.44a4.57 4.57 0 0 1 -1.44-.21c-.82-.41-.4 0-.4.21s-.21 0-.21 0a1.58 1.58 0 0 0 -1 .2c-.2.41-.62 1.24-.62 1.24a5.13 5.13 0 0 1 1-.42h2.48a.7.7 0 0 1 .41-.2h2.06c.41 0 .61.62.61.62s0-1.44-.41-1.44h-1.22l1.64-4.32 1.24-.21-1 .62.82.61-1.47.46 2.06 1.23 1.26 1.61h-1.88c-.41 0-.61 1.44-.61 1.44s.61-.62.82-.62h2.67c.21 0 .21.2.62.2h2.47a3.06 3.06 0 0 1 .82.42 9.1 9.1 0 0 0 -.41-1c-.21-.2-.21-.4-1-.4-.62 0 0-.83-.62-.42a1.28 1.28 0 0 1 -1.44.21 11.62 11.62 0 0 1 -1.44-1.89l1.24-3.29.41-.41-.21 1 .82.42-.26 1.25a33.7 33.7 0 0 1 2.47-3.3c.21 0 0 .63.21 1.44a1.45 1.45 0 0 0 1.17.88 4.12 4.12 0 0 1 -.68-2.25 3.63 3.63 0 0 1 3.65-3.52c-.21-.21-.41-.21-.83-.41s-.82 0-1.23.2c-.21 0-.41-.62-.61-.62a5 5 0 0 1 -1.24 2.27 4.63 4.63 0 0 0 -1 1.24 3.17 3.17 0 0 1 -.41-.83c0-.2 1.44-2.68 1.44-3.08a7.71 7.71 0 0 1 -.62-1.65 3.69 3.69 0 0 1 -.2-1.23v-5.6c0-.41 0-.7-.21-.83l-2.91-1.63c-.2-.09-.37-.18-.87.19l-.57.42-.2-.61s-.83.81-1 .81c-.21.21-2.47-.41-3.5-.2a2.25 2.25 0 0 0 -1.48 1.21s4 1.25 5.18 1.67c1.65.62.65 2.61-.43 3.46-1.32 1-3.47-2-3.89-2.84-.61-1-2.67-4.11-3.08-4.11z" fill="none" stroke="#fcfdfe" stroke-linecap="round" stroke-linejoin="round" stroke-width=".99"/><path d="m18.18 13.29a.43.43 0 0 1 -.41-.41c0-.42.2-.61.41-.61a.53.53 0 0 1 .61.61c0 .21-.2.41-.61.41m-1-.83v.42l-1.44-.21.41-.4a9.4 9.4 0 0 1 1 .19zm-16.68-1.63 1 1.44c.21.4.62.4 1 .4h3.34l.21.42h-4.11l1 1.44a1.26 1.26 0 0 0 .82.2h3.5l.21.41h-4.09l1 1.64h4.13l.42.42h-4.12l1 1.65c.21.2.41.2.82.2h3.37l.21.41h-3.96l1 1.65h4.11l.21.41h-3.88s.62 1.65.62 1.85h2.26l-8 6.17h2.86l1.44 3.7 4.32-4.93 1 .21-.82.61.62.62-1.24.41 1.86 1.24-.42 1.44a4.57 4.57 0 0 1 -1.44-.21c-.82-.41-.4 0-.4.21s-.21 0-.21 0a1.58 1.58 0 0 0 -1 .2c-.2.41-.62 1.24-.62 1.24a5.13 5.13 0 0 1 1-.42h2.48a.7.7 0 0 1 .41-.2h2.06c.41 0 .61.62.61.62s0-1.44-.41-1.44h-1.22l1.64-4.32 1.24-.21-1 .62.82.61-1.47.46 2.06 1.23 1.26 1.61h-1.88c-.41 0-.61 1.44-.61 1.44s.61-.62.82-.62h2.67c.21 0 .21.2.62.2h2.47a3.06 3.06 0 0 1 .82.42 9.1 9.1 0 0 0 -.41-1c-.21-.2-.21-.4-1-.4-.62 0 0-.83-.62-.42a1.28 1.28 0 0 1 -1.44.21 11.62 11.62 0 0 1 -1.44-1.89l1.24-3.29.41-.41-.21 1 .82.42-.26 1.25a33.7 33.7 0 0 1 2.47-3.3c.21 0 0 .63.21 1.44a1.45 1.45 0 0 0 1.17.88 4.12 4.12 0 0 1 -.68-2.25 3.63 3.63 0 0 1 3.65-3.52c-.21-.21-.41-.21-.83-.41s-.82 0-1.23.2c-.21 0-.41-.62-.61-.62a5 5 0 0 1 -1.24 2.27 4.63 4.63 0 0 0 -1 1.24 3.17 3.17 0 0 1 -.41-.83c0-.2 1.44-2.68 1.44-3.08a7.71 7.71 0 0 1 -.62-1.65 3.69 3.69 0 0 1 -.2-1.23v-5.6c0-.41 0-.7-.21-.83l-2.91-1.63c-.2-.09-.37-.18-.87.19l-.57.42-.2-.61s-.83.81-1 .81c-.21.21-2.47-.41-3.5-.2a2.25 2.25 0 0 0 -1.48 1.21s4 1.25 5.18 1.67c1.65.62.65 2.61-.43 3.46-1.32 1-3.47-2-3.89-2.84-.61-1-2.67-4.11-3.08-4.11z" fill="#870000"/><circle cx="18.28" cy="12.8" fill="#fff" r=".6"/><circle cx="18.28" cy="12.8" fill="#910000" r=".31"/><path d="m36.1 19.73-.51.73-.28-.59z" fill="#fff"/><g fill="#870000" fill-rule="evenodd"><path d="m39.58.93a.61.61 0 0 0 -.58.64.64.64 0 0 0 .27.48v-.05c-.7.88-1.31.57-1.28-.34a.06.06 0 0 0 .06 0 .61.61 0 1 0 -.64-.57.62.62 0 0 0 .42.55c-.4.72-1.37.82-1.35-.23a.64.64 0 0 0 .52-.61.63.63 0 0 0 -.63-.63.63.63 0 0 0 -.27 1.21c-.36.86-1.12.78-1.2 0a.64.64 0 1 0 -.8-.62.62.62 0 0 0 .46.61.38.38 0 0 1 0 .18c-.27.83-1 .81-1.22-.22a.65.65 0 0 0 .5-.62.67.67 0 0 0 -.67-.71.66.66 0 0 0 -.65.65.63.63 0 0 0 .41.59.5.5 0 0 1 0 .21v.06c-.11.84-1.24.78-1.19-.25a.63.63 0 0 0 .48-.61.65.65 0 1 0 -1.3 0 .66.66 0 0 0 .4.6.74.74 0 0 1 -.5.76c-.28.05-.57-.2-.68-.71a.59.59 0 0 0 .23-.51.61.61 0 1 0 -.57.64.8.8 0 0 1 -.39.78c-.26.12-.59-.14-.77-.54a.67.67 0 0 0 .2-.47.65.65 0 1 0 -.65.64h.05c-.12.93-1.1 1.06-1.1.12a1.26 1.26 0 0 0 .08-.41.64.64 0 0 0 -.7-.54.65.65 0 0 0 -.6.66.6.6 0 0 0 .63.58h.06l.7 1.18.36-.09a23.41 23.41 0 0 1 11 .16l.41-.5.39-.51c.05 0 .11-.13.17-.14.34 0 .6-.46.58-.79a.61.61 0 0 0 -.64-.63z"/><path d="m27.18 1.95-.05.01h.05z"/><path d="m27.56 3.88.72 1.21a27.91 27.91 0 0 1 9.52 0l.6-1.09a23.24 23.24 0 0 0 -10.84-.12zm.92.72-.08-.46.32-.06.08.46zm1-.16-.11-.44c.22 0 .43-.07.65-.09l.06.46c-.22 0-.42.03-.64.07zm1.27-.16v-.46h.66v.46zm1.25-.08v-.46h.66v.46zm5.2 0 .32.07-.1.45-.32-.07zm-1.29-.2.65.11-.09.46-.63-.11zm-1.3-.16.65.07-.06.46-.64-.06zm-.69.42h-.64v-.53h.66z"/></g></svg>